<svg width="180" height="30" viewBox="0 0 180 30" fill="none" xmlns="http://www.w3.org/2000/svg">
<path fill-rule="evenodd" clip-rule="evenodd" d="M11.798 13.4756C7.50917 21.0587 4 27.313 4 27.3738C4 27.4349 6.47204 27.4613 9.49356 27.4327L14.9869 27.3807L19.9557 18.5801C22.6885 13.7398 24.9669 9.6299 25.019 9.44704C25.0721 9.26027 24.5063 8.06007 23.728 6.70908C22.9659 5.38606 21.8395 3.41981 21.2248 2.33969C20.6103 1.25937 19.9922 0.220896 19.8517 0.0317816C19.6275 -0.269981 18.6374 1.38277 11.798 13.4756ZM45.7474 12.3282C45.7474 22.4052 45.7566 22.4975 46.8368 23.3336C47.1346 23.564 47.6994 23.8117 48.0922 23.8841C48.8914 24.0316 51.4585 23.6985 51.7525 23.4093C51.8694 23.2943 51.8759 22.8924 51.7694 22.3679L51.596 21.5136L50.4705 21.5809C49.4804 21.64 49.284 21.5881 48.8383 21.1497L48.3318 20.6514V11.8418V3.03239H47.0396H45.7474V12.3282ZM100.459 4.9296L100.516 6.84109L102.268 6.8493C103.249 6.8538 104.085 6.76892 104.168 6.65608C104.25 6.54539 104.312 5.70679 104.305 4.79251L104.293 3.13017L102.348 3.07405L100.402 3.01811L100.459 4.9296ZM24.2244 13.9119L20.7069 20.0789L22.811 23.7787L24.9151 27.4785H31.8523C35.6678 27.4785 38.7895 27.4038 38.7895 27.3124C38.7895 27.2211 38.0174 25.7909 37.0739 24.1344C36.1302 22.4778 34.9344 20.3744 34.4166 19.4601C33.8985 18.5459 32.6459 16.3457 31.6328 14.5709C30.6197 12.7962 29.3451 10.552 28.8002 9.58394C28.2553 8.61587 27.7944 7.80602 27.776 7.78431C27.7573 7.76261 26.1593 10.5199 24.2244 13.9119ZM113.602 8.72637C112.496 8.92311 111.683 9.35649 110.632 10.3099L109.76 11.1006V9.99228V8.88419L108.021 8.94071L106.281 8.99723V19.3624V29.7275L108.219 29.7834L110.158 29.8394L110.161 25.5787L110.164 21.3181L110.807 22.0272C112.089 23.4413 113.47 24.0269 115.461 24.0007C118.295 23.9633 120.699 22.0172 121.572 19.053C123.31 13.1505 119.136 7.74149 113.602 8.72637ZM126.496 8.81907C123.691 9.54756 121.998 12.0718 122.67 14.5256C123.064 15.9657 123.951 16.4736 128.537 17.8841C129.624 18.2187 130.676 18.6358 130.872 18.8111C131.625 19.4811 131.065 20.8616 129.928 21.1426C128.691 21.4479 126.928 21.1233 125.169 20.2661C124.221 19.804 123.419 19.4557 123.386 19.4918C123.353 19.5282 123.038 20.0222 122.686 20.5896C121.954 21.7684 121.999 21.9073 123.362 22.6812C125.558 23.9281 129.108 24.3656 131.493 23.6835C133.759 23.0353 135.176 21.0609 134.96 18.851C134.777 16.9694 133.503 16.0428 129.587 14.9402C126.477 14.0644 125.855 13.6005 126.279 12.4727C126.815 11.0491 129.667 10.9805 131.853 12.3383C132.272 12.5982 132.692 12.8108 132.789 12.8108C132.943 12.8108 134.411 10.7941 134.411 10.5815C134.411 10.3553 132.315 9.27064 131.337 8.99097C129.831 8.56033 127.774 8.48719 126.496 8.81907ZM160.137 8.725C158.849 8.95225 157.557 9.64476 156.685 10.5747L155.881 11.433V10.1587V8.88419L154.142 8.94071L152.403 8.99723L152.401 16.3799L152.4 23.7627H154.339H156.279L156.282 19.3135C156.285 15.0706 156.306 14.8289 156.729 14.1006C157.407 12.9342 158.475 12.1846 159.61 12.0772C160.436 11.9992 160.659 12.0596 161.201 12.5083C161.598 12.8368 161.886 13.2972 161.978 13.7515C162.059 14.1485 162.14 14.5393 162.159 14.6198C162.178 14.7004 162.204 16.7906 162.218 19.2646L162.243 23.7627H164.184H166.126L166.118 19.4113C166.111 15.1936 166.125 15.0305 166.591 14.1084C167.444 12.4222 169.367 11.5975 170.776 12.3145C171.841 12.8562 171.984 13.6422 171.984 18.9751V23.7627H173.992H176L175.913 18.0423C175.821 11.9705 175.741 11.418 174.754 10.0555C173.835 8.78485 171.312 8.2486 169.3 8.89573C168.259 9.23074 166.949 10.1214 166.417 10.8555C165.968 11.4763 165.622 11.6165 165.622 11.1778C165.622 11.0327 165.36 10.5585 165.04 10.1239C164.137 8.8973 162.236 8.35479 160.137 8.725ZM56.7004 8.98765C55.3028 9.43374 53.78 10.5894 52.9204 11.8557C51.8137 13.4859 51.6119 14.1911 51.6119 16.4288C51.6119 18.2154 51.6658 18.4966 52.2358 19.6798C53.0373 21.3443 53.9979 22.3786 55.4473 23.1386C56.4835 23.6819 56.9801 23.8204 58.6353 24.0271C59.5507 24.1413 61.4749 23.7582 62.4659 23.264C68.1505 20.4302 68.0847 12.1414 62.3555 9.38387C61.3632 8.90629 60.8916 8.80792 59.3762 8.76216C58.2138 8.72715 57.2655 8.80714 56.7004 8.98765ZM72.1404 8.98863C71.0941 9.3827 69.7031 10.3611 69.12 11.1133C68.8477 11.4643 68.3753 12.2759 68.0704 12.9168C67.5642 13.9801 67.5157 14.2786 67.5157 16.3311C67.5157 18.3618 67.5674 18.6886 68.0485 19.6984C68.7536 21.1782 70.1868 22.6538 71.5662 23.3203C72.5129 23.7775 72.9286 23.8589 74.2748 23.8509C76.2067 23.8391 77.3031 23.4108 78.7072 22.1187L79.6736 21.2295L79.6316 23.0455C79.5998 24.4229 79.4929 25.0475 79.1881 25.6321C78.3621 27.2174 77.1204 27.9042 74.8712 28.0208C72.8606 28.1248 71.3384 27.6148 70.009 26.3917L69.1029 25.5578L68.4584 26.1241C68.104 26.4357 67.8139 26.7822 67.8139 26.8941C67.8139 27.3126 69.5671 28.8013 70.7048 29.3489C71.7165 29.8358 72.1692 29.927 73.8868 29.9896C78.1055 30.1431 80.9063 28.6004 81.9617 25.5417C82.1363 25.0358 82.2076 22.6135 82.2156 16.9178L82.2267 8.99723L81.0836 8.93856L79.9406 8.87989V10.2493V11.6188L78.9742 10.668C77.5276 9.24502 76.5916 8.84117 74.573 8.769C73.4502 8.72891 72.634 8.80264 72.1404 8.98863ZM89.0791 8.99332C87.741 9.41536 86.1349 10.6175 85.2852 11.833C83.2965 14.6781 83.4849 18.9957 85.7069 21.4851C88.3688 24.4675 93.0276 24.8749 96.2064 22.4029C99.7235 19.668 99.9917 13.8774 96.7453 10.7736C95.2837 9.37624 93.9271 8.8267 91.7801 8.76275C90.6102 8.72793 89.6643 8.8087 89.0791 8.99332ZM100.417 16.324V23.7627H102.356H104.296L104.294 16.3799L104.293 8.99723L102.355 8.9413L100.417 8.88537V16.324ZM135.814 13.8376C135.839 19.115 135.988 20.6302 136.595 21.8013C137.553 23.6498 139.615 24.3918 142.286 23.8495C143.867 23.5282 144.852 23.0189 145.892 21.984L146.736 21.143V21.6802C146.736 23.3232 148.512 24.3496 150.464 23.835C150.881 23.7249 150.911 23.6107 150.911 22.1246C150.911 20.7439 150.858 20.4996 150.514 20.2878C150.131 20.0529 150.116 19.8317 150.116 14.4716V8.89945H148.128H146.14V13.5477C146.14 18.1897 146.139 18.197 145.641 18.919C144.684 20.3044 142.594 21.0926 141.293 20.5581C139.978 20.0173 139.886 19.6049 139.816 13.9353L139.754 8.89945H137.772H135.79L135.814 13.8376ZM61.197 11.4135C62.2387 11.9362 63.3354 13.2023 63.7278 14.3353C64.1308 15.4987 64.1207 17.1925 63.7036 18.3968C63.275 19.6342 61.6309 21.2946 60.5389 21.5928C58.7215 22.0892 57.2976 21.7669 55.9272 20.5491C53.097 18.0337 53.7152 13.1282 57.0825 11.3826C58.0142 10.8993 58.3329 10.8313 59.28 10.9124C59.8893 10.9647 60.7519 11.1901 61.197 11.4135ZM76.9314 11.4592C78.1132 12.0403 79.505 13.4398 79.5678 14.1102C79.7211 15.7471 79.6271 18.4958 79.3978 19.069C78.4895 21.3417 75.4519 22.4334 73.0709 21.3427C69.6238 19.7637 68.9666 14.7822 71.8465 12.0628C73.255 10.7331 75.0263 10.5229 76.9314 11.4592ZM93.7504 11.5255C97.4643 13.6666 97.2359 19.572 93.3705 21.3427C91.3925 22.2488 89.4337 21.8207 87.9451 20.1572C85.4749 17.3963 86.3132 12.8398 89.5741 11.3055C90.877 10.6926 92.4493 10.7753 93.7504 11.5255ZM115.721 12.3235C118.175 13.5851 118.734 17.4786 116.757 19.5264C115.289 21.047 113.329 21.1671 111.693 19.8372C110.493 18.8625 110.158 18.0104 110.158 15.9364V14.1571L111.003 13.2804C111.467 12.7983 112.205 12.2759 112.643 12.1193C113.519 11.806 114.892 11.8969 115.721 12.3235ZM18.2558 24.3885L16.5614 27.3807L18.2226 27.437C19.1362 27.4681 20.6868 27.4681 21.6683 27.437L23.4531 27.3807L21.8256 24.5103C20.9304 22.9317 20.1421 21.5852 20.074 21.5181C20.0058 21.451 19.1877 22.7428 18.2558 24.3885Z" fill="#00D1B2"/>
</svg>
